<svg xmlns="http://www.w3.org/2000/svg" xmlns:xlink="http://www.w3.org/1999/xlink" viewBox="0 0 160.18 24.12"><defs><style>.cls-1,.cls-4,.cls-6{fill:#fff;}.cls-2,.cls-3{fill:#f6e210;}.cls-2,.cls-6{fill-rule:evenodd;}.cls-4{stroke:#fff;stroke-miterlimit:10;}.cls-5{clip-path:url(#clip-path);}</style><clipPath id="clip-path"><path class="cls-1" d="M120.61,9.72h1.61l-1.79,7.81h-1.61Zm10.19,4.39L130,17.53h-1.45l.71-3.15c0-.16.05-.28.06-.37a2.32,2.32,0,0,0,0-.24.93.93,0,0,0-.21-.64.68.68,0,0,0-.56-.24,1.14,1.14,0,0,0-.94.46,3.9,3.9,0,0,0-.59,1.51l-.58,2.67H125l.69-3.13c0-.14,0-.26.07-.37a1.58,1.58,0,0,0,0-.28,1,1,0,0,0-.2-.63.71.71,0,0,0-.54-.23,1.24,1.24,0,0,0-.94.43,3.08,3.08,0,0,0-.57,1.3l-.66,2.91h-1.5l1.26-5.75h1.31l-.22,1a3.16,3.16,0,0,1,.94-.82,2.14,2.14,0,0,1,1-.26,1.48,1.48,0,0,1,1,.3,1.56,1.56,0,0,1,.53.87,3,3,0,0,1,.92-.89,2.18,2.18,0,0,1,1.11-.28,1.61,1.61,0,0,1,1.23.46,1.76,1.76,0,0,1,.44,1.28c0,.14,0,.26,0,.38s0,.22,0,.31Zm1.76,2.83-.84,3.7h-1.53l1.24-5.8a3.48,3.48,0,0,1,3.62-3.14c2.19,0,2.35,1.42,2,3.07a3.31,3.31,0,0,1-2.69,2.95c-.59.06-1.53.09-1.85-.78Zm2.83-3.73c-.51-.61-1.57-.05-1.94.43a2.63,2.63,0,0,0-.26,2.51c.54.67,1.55.16,1.94-.39a2.25,2.25,0,0,0,.26-2.55ZM143,15h-4.22a.22.22,0,0,0,0,.08v.13a1.21,1.21,0,0,0,.43,1,1.88,1.88,0,0,0,1.23.37,4.17,4.17,0,0,0,.88-.09,5,5,0,0,0,.82-.28l-.09,1.12a7.22,7.22,0,0,1-1,.24,6.37,6.37,0,0,1-1,.08,2.87,2.87,0,0,1-2.05-.71,2.56,2.56,0,0,1-.73-1.94,3.74,3.74,0,0,1,.27-1.31,3.61,3.61,0,0,1,.73-1.12,3.27,3.27,0,0,1,1.1-.75,3.61,3.61,0,0,1,1.37-.24,2.36,2.36,0,0,1,1.73.62,2.22,2.22,0,0,1,.62,1.69c0,.15,0,.32,0,.51s-.06.37-.1.59Zm-1.22-.91s0,0,0,0a1.63,1.63,0,0,0,0-.28,1.2,1.2,0,0,0-.29-.88,1.11,1.11,0,0,0-.84-.32,1.56,1.56,0,0,0-1.07.4,2.21,2.21,0,0,0-.66,1.12ZM148,11.71l-.35,1.3a2.62,2.62,0,0,0-.38-.09l-.36,0a1.55,1.55,0,0,0-1.14.43,3.36,3.36,0,0,0-.66,1.48l-.62,2.66h-1.58l1.28-5.72h1.42l-.22,1a3.37,3.37,0,0,1,.91-.85,2,2,0,0,1,1-.27l.32,0,.38.08Zm10.53,0-.06,1.32-.25-.06h-.28a1.4,1.4,0,0,0-1.15.48,2.15,2.15,0,0,0-.41,1.39l0,2.67h-1.52l.06-5.7h1.36V13a2.43,2.43,0,0,1,.73-1,1.69,1.69,0,0,1,1-.32h.23l.29,0Zm-7.87-.47-1.21,3.23,2.37,0Zm-1.22-.76a1.31,1.31,0,0,1,2.48,0l2.77,7h-1.76l-.63-1.81h-3.38l-.7,1.81h-1.66Z"/></clipPath></defs><g id="Capa_2" data-name="Capa 2"><g id="Capa_1-2" data-name="Capa 1"><path class="cls-2" d="M31,5.51q-1.23,5.81-2.47,11.62a1.19,1.19,0,0,0,1.17,1.44h.54a1.18,1.18,0,0,0,1.16-.95L33.85,6a1.19,1.19,0,0,0-1.16-1.44h-.53A1.21,1.21,0,0,0,31,5.51Z"/><path class="cls-2" d="M41.39,9c-.54-.91-1.69-1.23-3.16-1.21h-.31L37,8a4.68,4.68,0,0,0-1.93,1c-.94.75-1.12,2.05-1.46,3.42L33,15.42a3.77,3.77,0,0,0,0,2,2.25,2.25,0,0,0,1.34,1.22,6.15,6.15,0,0,0,1.29.25,4.87,4.87,0,0,0,1.72-.09,4,4,0,0,0,3.34-3.05L41,14l.37-1.7C41.62,11.29,41.9,9.89,41.39,9Zm-2.71,2c-.26,1.19-.52,2.38-.77,3.57a5.47,5.47,0,0,1-.49,1.74,1.08,1.08,0,0,1-1.12.38c-.78-.18-.42-1.32-.26-1.95l.65-3a3.8,3.8,0,0,1,.5-1.49c.17-.21.39-.23.66-.35C38.54,10,38.83,10.33,38.68,11.05Z"/><path class="cls-3" d="M53.8,10.81H52.46l-2.07,2.32-1.25-2.32L47.58,8a3.11,3.11,0,0,0-1.87,1.74l0,0h0L46,8.11H43.24L41,18.57h3l1.11-5.2c.18-.73.2-1.69.73-2.07A6.29,6.29,0,0,1,48,11.11l1.56,3-3.07,3.43H47.8L50.06,15l1.39,2.52h1.37L51,14Z"/><path class="cls-3" d="M57.31,10.81h-2.7l-1.18,6.68h1.14l.36-2h1.56a2.85,2.85,0,0,0,3.1-2.39C59.85,11.64,59,10.81,57.31,10.81Zm1.18,2.31c-.16.91-.83,1.34-1.87,1.34H55.1l.47-2.64h1.51C58.13,11.82,58.65,12.24,58.49,13.12Z"/><path class="cls-3" d="M63.4,10.81H60.64l-1.17,6.68h1.14l.35-2h1.93l.88,2h1.3l-1.13-2.23a2.7,2.7,0,0,0,1.79-2.17C66,11.64,65.13,10.81,63.4,10.81Zm1.24,2.31c-.16.91-.84,1.34-1.89,1.34H61.14l.47-2.64h1.61C64.27,11.82,64.79,12.24,64.64,13.12Z"/><polygon class="cls-3" points="67.64 14.64 70.95 14.64 71.13 13.63 67.81 13.63 68.13 11.82 71.84 11.82 72.01 10.81 67.17 10.81 65.99 17.49 70.95 17.49 71.13 16.48 67.31 16.48 67.64 14.64"/><path class="cls-3" d="M73.78,12.52c.08-.45.56-.7,1.23-.7a3.52,3.52,0,0,1,1.87.62l.65-1a3.86,3.86,0,0,0-2.25-.69c-1.47,0-2.6.72-2.8,1.86-.42,2.38,3.39,1.55,3.13,3-.09.51-.62.81-1.41.81a3,3,0,0,1-2.13-1l-.67,1A3.55,3.55,0,0,0,74,17.53c1.49,0,2.69-.74,2.9-1.93C77.32,13.19,73.52,14,73.78,12.52Z"/><path class="cls-3" d="M79.32,12.52c.08-.45.56-.7,1.23-.7a3.55,3.55,0,0,1,1.88.62l.65-1a3.89,3.89,0,0,0-2.26-.69A2.58,2.58,0,0,0,78,12.62c-.42,2.38,3.39,1.55,3.13,3-.09.51-.62.81-1.41.81a3,3,0,0,1-2.13-1l-.66,1a3.52,3.52,0,0,0,2.58,1.06c1.5,0,2.69-.74,2.9-1.93C82.87,13.19,79.06,14,79.32,12.52Z"/><path class="cls-3" d="M5.84,6H5.12a.61.61,0,0,1-.61-.61h0a.6.6,0,0,1,.61-.6h.72a.6.6,0,0,1,.6.6h0A.6.6,0,0,1,5.84,6Z"/><path class="cls-3" d="M3,14.64H2.26a.6.6,0,0,1-.61-.6h0a.61.61,0,0,1,.61-.61H3a.61.61,0,0,1,.61.61h0A.6.6,0,0,1,3,14.64Z"/><path class="cls-3" d="M3,8.86H2.26a.61.61,0,0,1-.61-.61h0a.6.6,0,0,1,.61-.6H3a.6.6,0,0,1,.61.6h0A.61.61,0,0,1,3,8.86Z"/><rect class="cls-3" y="10.54" width="3.58" height="1.21" rx="0.53"/><path class="cls-3" d="M18,4.7l-5.85.06H7.54a.63.63,0,0,0-.63.54.61.61,0,0,0,.6.67h.87a.84.84,0,0,1,.8.93.87.87,0,0,1-.87.75H4.77a.63.63,0,0,0-.63.54.61.61,0,0,0,.61.67h1.4a.83.83,0,0,1,.79.56.84.84,0,0,1-.79,1.12H4.64a.61.61,0,0,0-.61.6H4a.61.61,0,0,0,.61.61H6.15a.84.84,0,1,1,0,1.68H4.77a.63.63,0,0,0-.63.55.61.61,0,0,0,.61.66H8.22a.86.86,0,0,1,.86.74.84.84,0,0,1-.77.94H6.89a.63.63,0,0,0-.63.55.61.61,0,0,0,.61.66h3.41a1,1,0,0,1,1,1v.3s.09.34.82.54a6.55,6.55,0,0,0,1.87.16c2.08-.16,3.88-.89,4.74-3a21.88,21.88,0,0,0,.76-2.75H17a1,1,0,0,0-.94.74c0,.14-.07.28-.11.41a6.83,6.83,0,0,1-.51,1.35,1.23,1.23,0,0,1-1.43.77h0c-1.84,0-3.76.18-4.15-1.27-.23-.83.16-2.1.63-3.64a5.25,5.25,0,0,0,.16-2.06l.3.27a10.33,10.33,0,0,0-.08-1.76,5.71,5.71,0,0,0,.47.39l0-.15a10.63,10.63,0,0,0-.08-1.69,3.47,3.47,0,0,0,.29.25,11.09,11.09,0,0,0,0-1.73c1.56,1.74,3.54,1.2,4.92,1.35h0a1.3,1.3,0,0,1,.74,1.38c0,.24-.06.48-.1.74a.63.63,0,0,0,.61.73h2.41c.13-.54.26-1,.35-1.46C20.93,6.3,20.13,5.1,18,4.7Z"/><path class="cls-3" d="M14.22,15.31h0a.2.2,0,0,1-.15-.24l1.62-7.22a.2.2,0,1,1,.38.09l-1.62,7.22A.19.19,0,0,1,14.22,15.31Z"/><circle class="cls-3" cx="14.02" cy="16.1" r="0.25"/><path class="cls-3" d="M28.5,9.1c-.55-1-1.67-1.31-3.21-1.29l-.47,0L24,8a4.52,4.52,0,0,0-1.81.89A3,3,0,0,0,21.37,10h3.56c.6,0,.95.27.84.95-.27,1.25-.54,2.5-.8,3.75a5.42,5.42,0,0,1-.49,1.72,1.15,1.15,0,0,1-1.18.35c-.7-.2-.33-1.39-.19-2l.21-.95h-3L20,15.39a3.63,3.63,0,0,0,0,2,2.26,2.26,0,0,0,1.4,1.23,3.71,3.71,0,0,0,1.33.23c2.63,0,4.07-.82,4.81-2.7a22.71,22.71,0,0,0,.54-2.33l.31-1.45C28.65,11.5,29,10,28.5,9.1Z"/><circle class="cls-3" cx="23.57" cy="11.98" r="0.64"/><line class="cls-4" x1="100.24" x2="100.24" y2="24.12"/><path class="cls-1" d="M120.61,9.72h1.61l-1.79,7.81h-1.61Zm10.19,4.39L130,17.53h-1.45l.71-3.15c0-.16.05-.28.06-.37a2.32,2.32,0,0,0,0-.24.93.93,0,0,0-.21-.64.68.68,0,0,0-.56-.24,1.14,1.14,0,0,0-.94.46,3.9,3.9,0,0,0-.59,1.51l-.58,2.67H125l.69-3.13c0-.14,0-.26.07-.37a1.58,1.58,0,0,0,0-.28,1,1,0,0,0-.2-.63.71.71,0,0,0-.54-.23,1.24,1.24,0,0,0-.94.43,3.08,3.08,0,0,0-.57,1.3l-.66,2.91h-1.5l1.26-5.75h1.31l-.22,1a3.16,3.16,0,0,1,.94-.82,2.14,2.14,0,0,1,1-.26,1.48,1.48,0,0,1,1,.3,1.56,1.56,0,0,1,.53.87,3,3,0,0,1,.92-.89,2.18,2.18,0,0,1,1.11-.28,1.61,1.61,0,0,1,1.23.46,1.76,1.76,0,0,1,.44,1.28c0,.14,0,.26,0,.38s0,.22,0,.31Zm1.76,2.83-.84,3.7h-1.53l1.24-5.8a3.48,3.48,0,0,1,3.62-3.14c2.19,0,2.35,1.42,2,3.07a3.31,3.31,0,0,1-2.69,2.95c-.59.06-1.53.09-1.85-.78Zm2.83-3.73c-.51-.61-1.57-.05-1.94.43a2.63,2.63,0,0,0-.26,2.51c.54.67,1.55.16,1.94-.39a2.25,2.25,0,0,0,.26-2.55ZM143,15h-4.22a.22.22,0,0,0,0,.08v.13a1.21,1.21,0,0,0,.43,1,1.88,1.88,0,0,0,1.23.37,4.17,4.17,0,0,0,.88-.09,5,5,0,0,0,.82-.28l-.09,1.12a7.22,7.22,0,0,1-1,.24,6.37,6.37,0,0,1-1,.08,2.87,2.87,0,0,1-2.05-.71,2.56,2.56,0,0,1-.73-1.94,3.74,3.74,0,0,1,.27-1.31,3.61,3.61,0,0,1,.73-1.12,3.27,3.27,0,0,1,1.1-.75,3.61,3.61,0,0,1,1.37-.24,2.36,2.36,0,0,1,1.73.62,2.22,2.22,0,0,1,.62,1.69c0,.15,0,.32,0,.51s-.06.37-.1.59Zm-1.22-.91s0,0,0,0a1.63,1.63,0,0,0,0-.28,1.2,1.2,0,0,0-.29-.88,1.11,1.11,0,0,0-.84-.32,1.56,1.56,0,0,0-1.07.4,2.21,2.21,0,0,0-.66,1.12ZM148,11.71l-.35,1.3a2.62,2.62,0,0,0-.38-.09l-.36,0a1.55,1.55,0,0,0-1.14.43,3.36,3.36,0,0,0-.66,1.48l-.62,2.66h-1.58l1.28-5.72h1.42l-.22,1a3.37,3.37,0,0,1,.91-.85,2,2,0,0,1,1-.27l.32,0,.38.08Zm10.53,0-.06,1.32-.25-.06h-.28a1.4,1.4,0,0,0-1.15.48,2.15,2.15,0,0,0-.41,1.39l0,2.67h-1.52l.06-5.7h1.36V13a2.43,2.43,0,0,1,.73-1,1.69,1.69,0,0,1,1-.32h.23l.29,0Zm-7.87-.47-1.21,3.23,2.37,0Zm-1.22-.76a1.31,1.31,0,0,1,2.48,0l2.77,7h-1.76l-.63-1.81h-3.38l-.7,1.81h-1.66Z"/><g class="cls-5"><path class="cls-6" d="M119.22,13.38c13.46,3,27.06,2.68,40.75.14L160.16,8l-42.85.4Z"/><path class="cls-6" d="M119.22,13.21c13.46,3,27.06,2.68,40.75.14.07-1.83.13-3.66.19-5.49l-42.85.4,1.91,5Z"/><path class="cls-6" d="M119.22,13c13.46,3,27.06,2.68,40.76.13.06-1.82.12-3.65.19-5.48l-42.86.4L119.22,13Z"/><path class="cls-6" d="M119.22,12.87c13.46,3,27.06,2.68,40.76.13.06-1.82.12-3.65.19-5.48l-42.86.4q1,2.47,1.91,4.95Z"/><path class="cls-6" d="M119.22,12.7c13.46,3,27.06,2.68,40.76.14.06-1.83.12-3.66.19-5.49l-42.86.4q1,2.48,1.91,4.95Z"/><path class="cls-6" d="M119.22,12.53c13.47,3,27.07,2.68,40.76.13.06-1.82.12-3.65.19-5.48l-42.85.4,1.9,4.95Z"/><path class="cls-6" d="M119.23,12.36c13.46,3,27.06,2.68,40.75.13.06-1.82.13-3.65.19-5.48l-42.85.4q.95,2.48,1.91,4.95Z"/><path class="cls-6" d="M119.23,12.19c13.46,3,27.06,2.68,40.75.14.07-1.84.13-3.66.19-5.49l-42.85.4q.95,2.47,1.91,4.95Z"/><path class="cls-6" d="M119.23,12c13.46,3,27.06,2.68,40.76.13l.18-5.48-42.85.4q1,2.48,1.91,4.95Z"/><path class="cls-6" d="M119.23,11.85c13.46,3,27.06,2.68,40.76.13l.18-5.48-42.85.4q1,2.47,1.91,4.95Z"/><path class="cls-6" d="M119.23,11.68c13.46,3,27.07,2.68,40.76.13l.18-5.48-42.84.4,1.9,4.95Z"/><path class="cls-6" d="M119.23,11.51c13.47,3,27.07,2.68,40.76.13l.19-5.48-42.85.4Z"/></g></g></g></svg>