<svg xmlns="http://www.w3.org/2000/svg" xmlns:xlink="http://www.w3.org/1999/xlink" viewBox="0 0 318.29 146.3"><defs><style>.cls-1,.cls-6{fill:#fff;}.cls-2{fill:#e00817;}.cls-3,.cls-4{fill:#f6e210;}.cls-3,.cls-6{fill-rule:evenodd;}.cls-5{clip-path:url(#clip-path);}</style><clipPath id="clip-path"><path class="cls-1" d="M129.92,88.92h2.7l-3,13.07h-2.69ZM147,96.27,145.69,102h-2.42l1.17-5.28c.05-.25.09-.47.11-.62a2.88,2.88,0,0,0,0-.39,1.61,1.61,0,0,0-.34-1.08,1.2,1.2,0,0,0-1-.4,1.88,1.88,0,0,0-1.56.78,6.44,6.44,0,0,0-1,2.53l-1,4.46h-2.52l1.16-5.24c.05-.23.09-.44.12-.62a2.88,2.88,0,0,0,0-.47,1.51,1.51,0,0,0-.34-1,1.11,1.11,0,0,0-.89-.39,2,2,0,0,0-1.57.73,4.93,4.93,0,0,0-1,2.17L133.69,102h-2.53l2.13-9.63h2.18L135.1,94a5.71,5.71,0,0,1,1.57-1.38,3.61,3.61,0,0,1,1.76-.43,2.37,2.37,0,0,1,2.46,2,5.11,5.11,0,0,1,1.55-1.48,3.61,3.61,0,0,1,1.85-.47,2.76,2.76,0,0,1,2.06.76,2.92,2.92,0,0,1,.74,2.14,6.3,6.3,0,0,1,0,.65,5.26,5.26,0,0,1-.08.52Zm2.95,4.74-1.41,6.19H146L148,97.49c.61-2.82,2.15-5.19,6.06-5.26,3.67-.08,3.94,2.37,3.43,5.14-.55,2.95-2.47,4.75-4.51,4.95-1,.09-2.56.14-3.09-1.31Zm4.74-6.24c-.85-1-2.63-.09-3.25.72s-1.2,3.24-.43,4.2c.9,1.12,2.59.27,3.25-.65.8-1.14,1.42-3.07.43-4.27Zm12.79,3h-7.07c0,.05,0,.08,0,.14a1.22,1.22,0,0,0,0,.21,2.06,2.06,0,0,0,.72,1.7,3.18,3.18,0,0,0,2.06.61,7.07,7.07,0,0,0,1.48-.15,6.62,6.62,0,0,0,1.38-.47l-.16,1.88a10.64,10.64,0,0,1-1.62.4,9.9,9.9,0,0,1-1.64.13,4.76,4.76,0,0,1-3.43-1.18,4.25,4.25,0,0,1-1.22-3.25,5.76,5.76,0,0,1,.45-2.19,6,6,0,0,1,1.22-1.88,5.46,5.46,0,0,1,1.84-1.26,6.22,6.22,0,0,1,2.3-.39,3.94,3.94,0,0,1,2.89,1,3.69,3.69,0,0,1,1,2.82c0,.25,0,.54,0,.85s-.09.63-.16,1Zm-2-1.52a.12.12,0,0,0,0-.07c0-.2,0-.36,0-.47a2,2,0,0,0-.49-1.47,1.83,1.83,0,0,0-1.41-.54,2.65,2.65,0,0,0-1.79.68,3.65,3.65,0,0,0-1.09,1.87Zm10.36-4-.59,2.17a3.56,3.56,0,0,0-.63-.14,3.1,3.1,0,0,0-.6,0A2.53,2.53,0,0,0,172,95a5.54,5.54,0,0,0-1.1,2.47l-1,4.46h-2.65l2.14-9.58h2.38l-.37,1.63a5.67,5.67,0,0,1,1.53-1.42,3.33,3.33,0,0,1,1.67-.44,3.74,3.74,0,0,1,.54.05l.63.13Zm17.64,0-.11,2.21a3.2,3.2,0,0,0-.42-.1,3.44,3.44,0,0,0-.46,0,2.37,2.37,0,0,0-1.94.81,3.66,3.66,0,0,0-.68,2.34l0,4.46h-2.55l.09-9.54h2.28v1.9a4.08,4.08,0,0,1,1.23-1.61,2.86,2.86,0,0,1,1.73-.52h.38l.5.07Zm-13.18-.78-2,5.41,4,0Zm-2-1.28a2.2,2.2,0,0,1,4.15,0L187,102H184L183,99h-5.65l-1.17,3h-2.78Z"/></clipPath></defs><g id="Capa_2" data-name="Capa 2"><g id="Capa_1-2" data-name="Capa 1"><rect class="cls-2" width="318.29" height="146.3"/><path class="cls-3" d="M126.56,42q-3.81,18-7.63,35.92a3.68,3.68,0,0,0,3.6,4.45h1.67a3.68,3.68,0,0,0,3.6-2.92q3.8-18,7.6-35.92a3.68,3.68,0,0,0-3.6-4.44h-1.64A3.68,3.68,0,0,0,126.56,42Z"/><path class="cls-3" d="M158.67,52.85c-1.65-2.8-5.21-3.79-9.74-3.72l-1,0-2.8.37a14.63,14.63,0,0,0-6,3c-2.89,2.33-3.46,6.36-4.52,10.58q-1,4.77-2,9.53a11.51,11.51,0,0,0,0,6.19,6.9,6.9,0,0,0,4.14,3.77,20,20,0,0,0,4,.79,16,16,0,0,0,5.31-.29c5.68-1.18,8.71-4.2,10.32-9.41.39-1.85.79-3.71,1.18-5.56s.75-3.52,1.12-5.27C159.41,59.9,160.27,55.54,158.67,52.85Zm-8.36,6.28q-1.19,5.52-2.38,11c-.46,1.85-.55,4-1.51,5.39A3.37,3.37,0,0,1,143,76.73c-2.38-.57-1.27-4.09-.79-6q1-4.62,2-9.24c.44-1.77.6-3.4,1.55-4.6.53-.67,1.2-.72,2-1.09C149.89,55.75,150.77,56.93,150.31,59.13Z"/><path class="cls-4" d="M197,58.4H192.9l-6.41,7.16-3.86-7.16-4.81-8.82A9.36,9.36,0,0,0,172.05,55L172,55h0c.34-1.65.67-3.29,1-4.94H164.4Q161,66.22,157.54,82.38h9.16l3.42-16.06c.56-2.25.61-5.24,2.26-6.4.71-.49,3.69-.61,6.64-.59l4.83,9.12L174.35,79h4.13l7-7.79L189.77,79H194l-5.74-10.73Z"/><path class="cls-4" d="M207.88,58.4h-8.36L195.88,79h3.54l1.09-6.22h4.82c5.28,0,8.78-2.71,9.6-7.38C215.72,61,213.15,58.4,207.88,58.4Zm3.65,7.13c-.49,2.8-2.56,4.16-5.79,4.16h-4.68l1.45-8.17h4.67C210.41,61.52,212,62.82,211.53,65.53Z"/><path class="cls-4" d="M226.69,58.4h-8.51L214.54,79h3.53l1.1-6.22h5c.33,0,.66,0,1,0L227.84,79h4l-3.48-6.9a8.28,8.28,0,0,0,5.52-6.7C234.68,61,232.05,58.4,226.69,58.4Zm3.83,7.13c-.49,2.8-2.59,4.16-5.83,4.16h-5l1.44-8.17h5C229.37,61.52,231,62.82,230.52,65.53Z"/><polygon class="cls-4" points="239.79 70.22 250.03 70.22 250.57 67.13 240.33 67.13 241.32 61.52 252.76 61.52 253.31 58.4 238.34 58.4 234.7 79.04 250.03 79.04 250.58 75.92 238.78 75.92 239.79 70.22"/><path class="cls-4" d="M258.76,63.67c.25-1.38,1.73-2.15,3.79-2.15a11,11,0,0,1,5.81,1.92l2-3.07a11.93,11.93,0,0,0-7-2.12c-4.55,0-8,2.21-8.65,5.75-1.29,7.34,10.48,4.78,9.67,9.38-.28,1.59-1.91,2.51-4.37,2.51a9.33,9.33,0,0,1-6.57-3l-2,3a10.93,10.93,0,0,0,8,3.27c4.62,0,8.31-2.27,9-6C269.71,65.77,258,68.19,258.76,63.67Z"/><path class="cls-4" d="M275.89,63.67c.25-1.38,1.73-2.15,3.8-2.15a11,11,0,0,1,5.8,1.92l2-3.07a12,12,0,0,0-7-2.12c-4.55,0-8,2.21-8.65,5.75-1.29,7.34,10.48,4.78,9.67,9.38-.28,1.59-1.91,2.51-4.37,2.51a9.29,9.29,0,0,1-6.56-3l-2.06,3a10.94,10.94,0,0,0,8,3.27c4.61,0,8.3-2.27,8.95-6C286.84,65.77,275.1,68.19,275.89,63.67Z"/><path class="cls-4" d="M48.83,43.44H46.61a1.87,1.87,0,0,1-1.86-1.87h0a1.86,1.86,0,0,1,1.86-1.86h2.22a1.87,1.87,0,0,1,1.87,1.86h0A1.87,1.87,0,0,1,48.83,43.44Z"/><path class="cls-4" d="M40,70.23H37.77a1.87,1.87,0,0,1-1.87-1.86h0a1.87,1.87,0,0,1,1.87-1.87H40a1.86,1.86,0,0,1,1.86,1.87h0A1.86,1.86,0,0,1,40,70.23Z"/><path class="cls-4" d="M40,52.37H37.77A1.87,1.87,0,0,1,35.9,50.5h0a1.87,1.87,0,0,1,1.87-1.86H40a1.86,1.86,0,0,1,1.86,1.86h0A1.87,1.87,0,0,1,40,52.37Z"/><rect class="cls-4" x="30.8" y="57.57" width="11.06" height="3.73" rx="1.65"/><path class="cls-4" d="M86.31,39.53l-18.08.18H54.1a1.91,1.91,0,0,0-1.94,1.68,1.87,1.87,0,0,0,1.86,2H56.7a2.6,2.6,0,0,1,2.46,2.89,2.66,2.66,0,0,1-2.68,2.31H45.54a1.91,1.91,0,0,0-1.93,1.68,1.86,1.86,0,0,0,1.85,2h4.33a2.56,2.56,0,0,1,2.46,1.73,2.61,2.61,0,0,1-2.46,3.47H45.13a1.87,1.87,0,0,0-1.87,1.86h0a1.87,1.87,0,0,0,1.87,1.87h4.66a2.6,2.6,0,0,1,0,5.2H45.54a1.91,1.91,0,0,0-1.93,1.68,1.86,1.86,0,0,0,1.85,2H56.19a2.67,2.67,0,0,1,2.68,2.28,2.6,2.6,0,0,1-2.38,2.91h-4.4a1.93,1.93,0,0,0-1.94,1.68,1.87,1.87,0,0,0,1.86,2H62.55a3.13,3.13,0,0,1,3.12,3.13v.93s.29,1,2.53,1.65a19.94,19.94,0,0,0,5.8.5c6.44-.5,12-2.76,14.65-9.18,1.08-2.59,1.53-5.46,2.35-8.49H83.33A3,3,0,0,0,80.42,70c-.11.44-.21.85-.34,1.26a21.72,21.72,0,0,1-1.57,4.17c-1.17,2.09-2,2.51-4.42,2.4v0c-5.68-.12-11.61.54-12.82-3.94-.69-2.55.51-6.49,2-11.23a16.25,16.25,0,0,0,.49-6.38c.31.3.62.57.94.83a33.22,33.22,0,0,0-.26-5.45,17.29,17.29,0,0,0,1.44,1.22l.09-.46a31.91,31.91,0,0,0-.27-5.24c.3.29.6.55.9.8a33,33,0,0,0,.07-5.36C71.43,48,77.55,46.36,81.8,46.82h0a4,4,0,0,1,2.29,4.27c-.07.74-.18,1.48-.31,2.31a1.92,1.92,0,0,0,1.9,2.23h7.45c.39-1.65.8-3.06,1.07-4.5C95.46,44.47,93,40.77,86.31,39.53Z"/><path class="cls-4" d="M74.73,72.31l-.13,0a.6.6,0,0,1-.46-.73l5-22.31a.61.61,0,0,1,1.19.27l-5,22.31A.62.62,0,0,1,74.73,72.31Z"/><circle class="cls-4" cx="74.12" cy="74.76" r="0.77"/><path class="cls-4" d="M118.86,53.11c-1.71-3-5.16-4-9.91-4l-1.47.09-2.46.37a14.26,14.26,0,0,0-5.61,2.76,9.19,9.19,0,0,0-2.57,3.44h10.93l0,0c1.86,0,3,.83,2.59,2.93q-1.23,5.79-2.47,11.58c-.45,1.84-.54,4-1.5,5.31a3.5,3.5,0,0,1-3.64,1.09c-2.17-.61-1-4.29-.59-6.06.22-1,.43-1.94.64-2.91H93.72c-.35,1.61-.69,3.22-1,4.83-.47,1.87-.74,4.51,0,6.31A7.06,7.06,0,0,0,97,82.67a12.38,12.38,0,0,0,4.1.71c8.1.1,12.56-2.56,14.84-8.36.85-2.18,1.07-4.79,1.67-7.2.32-1.49.65-3,1-4.47C119.31,60.52,120.44,55.88,118.86,53.11Z"/><circle class="cls-4" cx="103.63" cy="62.01" r="1.99"/><path class="cls-1" d="M129.92,88.92h2.7l-3,13.07h-2.69ZM147,96.27,145.69,102h-2.42l1.17-5.28c.05-.25.09-.47.11-.62a2.88,2.88,0,0,0,0-.39,1.61,1.61,0,0,0-.34-1.08,1.2,1.2,0,0,0-1-.4,1.88,1.88,0,0,0-1.56.78,6.44,6.44,0,0,0-1,2.53l-1,4.46h-2.52l1.16-5.24c.05-.23.09-.44.12-.62a2.88,2.88,0,0,0,0-.47,1.51,1.51,0,0,0-.34-1,1.11,1.11,0,0,0-.89-.39,2,2,0,0,0-1.57.73,4.93,4.93,0,0,0-1,2.17L133.69,102h-2.53l2.13-9.63h2.18L135.1,94a5.71,5.71,0,0,1,1.57-1.38,3.61,3.61,0,0,1,1.76-.43,2.37,2.37,0,0,1,2.46,2,5.11,5.11,0,0,1,1.55-1.48,3.61,3.61,0,0,1,1.85-.47,2.76,2.76,0,0,1,2.06.76,2.92,2.92,0,0,1,.74,2.14,6.3,6.3,0,0,1,0,.65,5.26,5.26,0,0,1-.08.52Zm2.95,4.74-1.41,6.19H146L148,97.49c.61-2.82,2.15-5.19,6.06-5.26,3.67-.08,3.94,2.37,3.43,5.14-.55,2.95-2.47,4.75-4.51,4.95-1,.09-2.56.14-3.09-1.31Zm4.74-6.24c-.85-1-2.63-.09-3.25.72s-1.2,3.24-.43,4.2c.9,1.12,2.59.27,3.25-.65.8-1.14,1.42-3.07.43-4.27Zm12.79,3h-7.07c0,.05,0,.08,0,.14a1.22,1.22,0,0,0,0,.21,2.06,2.06,0,0,0,.72,1.7,3.18,3.18,0,0,0,2.06.61,7.07,7.07,0,0,0,1.48-.15,6.62,6.62,0,0,0,1.38-.47l-.16,1.88a10.64,10.64,0,0,1-1.62.4,9.9,9.9,0,0,1-1.64.13,4.76,4.76,0,0,1-3.43-1.18,4.25,4.25,0,0,1-1.22-3.25,5.76,5.76,0,0,1,.45-2.19,6,6,0,0,1,1.22-1.88,5.46,5.46,0,0,1,1.84-1.26,6.22,6.22,0,0,1,2.3-.39,3.94,3.94,0,0,1,2.89,1,3.69,3.69,0,0,1,1,2.82c0,.25,0,.54,0,.85s-.09.63-.16,1Zm-2-1.52a.12.12,0,0,0,0-.07c0-.2,0-.36,0-.47a2,2,0,0,0-.49-1.47,1.83,1.83,0,0,0-1.41-.54,2.65,2.65,0,0,0-1.79.68,3.65,3.65,0,0,0-1.09,1.87Zm10.36-4-.59,2.17a3.56,3.56,0,0,0-.63-.14,3.1,3.1,0,0,0-.6,0A2.53,2.53,0,0,0,172,95a5.54,5.54,0,0,0-1.1,2.47l-1,4.46h-2.65l2.14-9.58h2.38l-.37,1.63a5.67,5.67,0,0,1,1.53-1.42,3.33,3.33,0,0,1,1.67-.44,3.74,3.74,0,0,1,.54.05l.63.13Zm17.64,0-.11,2.21a3.2,3.2,0,0,0-.42-.1,3.44,3.44,0,0,0-.46,0,2.37,2.37,0,0,0-1.94.81,3.66,3.66,0,0,0-.68,2.34l0,4.46h-2.55l.09-9.54h2.28v1.9a4.08,4.08,0,0,1,1.23-1.61,2.86,2.86,0,0,1,1.73-.52h.38l.5.07Zm-13.18-.78-2,5.41,4,0Zm-2-1.28a2.2,2.2,0,0,1,4.15,0L187,102H184L183,99h-5.65l-1.17,3h-2.78Z"/><g class="cls-5"><path class="cls-6" d="M127.59,95.05c22.53,5,45.3,4.48,68.23.23l.31-9.19-71.74.67Z"/><path class="cls-6" d="M127.59,94.76c22.53,5,45.3,4.49,68.23.23q.17-4.59.31-9.18l-71.74.67q1.59,4.14,3.2,8.28Z"/><path class="cls-6" d="M127.59,94.48c22.54,5,45.31,4.49,68.23.22.11-3.06.21-6.12.32-9.18l-71.74.67c1.06,2.76,2.12,5.53,3.19,8.29Z"/><path class="cls-6" d="M127.59,94.19c22.54,5,45.31,4.49,68.23.22q.17-4.59.32-9.18l-71.74.67c1.06,2.77,2.13,5.53,3.19,8.29Z"/><path class="cls-6" d="M127.59,93.9c22.54,5,45.31,4.49,68.23.23q.17-4.59.32-9.19-35.88.36-71.74.68l3.19,8.28Z"/><path class="cls-6" d="M127.59,93.63c22.54,5,45.31,4.49,68.24.22q.15-4.59.32-9.18l-71.75.67q1.6,4.14,3.19,8.29Z"/><path class="cls-6" d="M127.6,93.34c22.53,5,45.3,4.49,68.23.22q.15-4.59.32-9.18l-71.75.67c1.07,2.76,2.13,5.53,3.2,8.29Z"/><path class="cls-6" d="M127.6,93.05c22.53,5,45.3,4.49,68.23.23.11-3.07.21-6.13.32-9.19l-71.74.67q1.59,4.15,3.19,8.29Z"/><path class="cls-6" d="M127.6,92.76c22.54,5,45.31,4.49,68.24.23q.15-4.59.31-9.18l-71.74.67,3.19,8.28Z"/><path class="cls-6" d="M127.61,92.48c22.53,5,45.3,4.49,68.23.22.1-3,.21-6.12.31-9.17l-71.74.67,3.2,8.28Z"/><path class="cls-6" d="M127.61,92.2c22.53,5,45.31,4.49,68.24.22l.3-9.18-71.73.67q1.59,4.14,3.19,8.29Z"/><path class="cls-6" d="M127.61,91.91c22.54,5,45.31,4.49,68.24.23l.31-9.19-71.74.67Z"/></g><path class="cls-1" d="M121.54,97.73H59.17a.82.82,0,0,1-.82-.82.82.82,0,0,1,.82-.81h62.37a.82.82,0,0,1,.82.81A.82.82,0,0,1,121.54,97.73Z"/><path class="cls-1" d="M259.13,97.73H196.75a.82.82,0,0,1-.81-.82.81.81,0,0,1,.81-.81h62.38a.81.81,0,0,1,.81.81A.82.82,0,0,1,259.13,97.73Z"/></g></g></svg>