<svg xmlns="http://www.w3.org/2000/svg" xmlns:xlink="http://www.w3.org/1999/xlink" viewBox="0 0 189.26 50.21"><defs><style>.cls-1,.cls-5{fill:#fff;}.cls-2,.cls-3{fill:#f6e210;}.cls-2,.cls-5{fill-rule:evenodd;}.cls-4{clip-path:url(#clip-path);}</style><clipPath id="clip-path"><path class="cls-1" d="M73.08,36.73h2l-2.21,9.64h-2Zm12.57,5.42-.94,4.22H82.92l.87-3.89c0-.19.06-.35.08-.46s0-.2,0-.29a1.17,1.17,0,0,0-.25-.79.89.89,0,0,0-.7-.3,1.42,1.42,0,0,0-1.16.57,5,5,0,0,0-.73,1.87l-.72,3.29H78.47l.85-3.86c0-.17.07-.33.09-.46a2.47,2.47,0,0,0,0-.35,1.13,1.13,0,0,0-.24-.77.86.86,0,0,0-.67-.29,1.47,1.47,0,0,0-1.15.54,3.56,3.56,0,0,0-.71,1.6l-.81,3.59H74l1.56-7.1h1.61l-.27,1.22a4,4,0,0,1,1.16-1,2.57,2.57,0,0,1,1.29-.32,1.76,1.76,0,0,1,1.82,1.44,3.76,3.76,0,0,1,1.14-1.09,2.63,2.63,0,0,1,1.36-.35,2.05,2.05,0,0,1,1.53.56,2.2,2.2,0,0,1,.54,1.58c0,.18,0,.33,0,.48a2,2,0,0,1-.06.38Zm2.17,3.5-1,4.56H84.9l1.53-7.16C86.88,41,88,39.23,90.9,39.17c2.7-.06,2.9,1.75,2.53,3.79s-1.82,3.51-3.33,3.65c-.72.07-1.88.11-2.28-1ZM91.32,41c-.63-.76-1.94-.06-2.39.53s-.89,2.4-.32,3.1,1.91.2,2.39-.48,1-2.26.32-3.15Zm9.43,2.25H95.54s0,.07,0,.11a.58.58,0,0,0,0,.15,1.55,1.55,0,0,0,.54,1.26,2.35,2.35,0,0,0,1.52.45,5.34,5.34,0,0,0,1.08-.11,4.73,4.73,0,0,0,1-.35l-.12,1.39a9,9,0,0,1-1.19.29,7,7,0,0,1-1.21.09,3.52,3.52,0,0,1-2.53-.87,3.09,3.09,0,0,1-.9-2.39,4.4,4.4,0,0,1,1.23-3,4,4,0,0,1,1.36-.93,4.62,4.62,0,0,1,1.7-.29,2.87,2.87,0,0,1,2.12.77,2.73,2.73,0,0,1,.77,2.08c0,.19,0,.4,0,.62s-.07.47-.12.73Zm-1.5-1.11a.43.43,0,0,0,0,0,2.51,2.51,0,0,0,0-.35,1.46,1.46,0,0,0-.36-1.09,1.37,1.37,0,0,0-1-.4,1.94,1.94,0,0,0-1.32.51,2.71,2.71,0,0,0-.8,1.38Zm7.64-3-.44,1.6a2.78,2.78,0,0,0-.46-.11,3.4,3.4,0,0,0-.45,0,1.82,1.82,0,0,0-1.4.53,4,4,0,0,0-.82,1.82l-.76,3.28h-2l1.57-7.05h1.76l-.28,1.2a4.32,4.32,0,0,1,1.13-1,2.4,2.4,0,0,1,1.23-.32l.4,0,.47.1Zm13,0-.08,1.62-.31-.07-.34,0a1.74,1.74,0,0,0-1.43.6,2.65,2.65,0,0,0-.5,1.72l0,3.29h-1.88l.06-7h1.69v1.4a2.94,2.94,0,0,1,.9-1.18,2.13,2.13,0,0,1,1.28-.39,1.37,1.37,0,0,1,.28,0l.37,0Zm-9.72-.58-1.5,4,2.93,0Zm-1.5-.94a1.62,1.62,0,0,1,3.06,0l3.41,8.66H113l-.78-2.23H108l-.86,2.23h-2Z"/></clipPath></defs><g id="Capa_2" data-name="Capa 2"><g id="Capa_1-2" data-name="Capa 1"><path class="cls-2" d="M70.61,2.15Q67.79,15.4,65,28.63a2.71,2.71,0,0,0,2.65,3.28h1.23a2.73,2.73,0,0,0,2.66-2.15q2.81-13.24,5.6-26.48A2.72,2.72,0,0,0,74.46,0h-1.2A2.71,2.71,0,0,0,70.61,2.15Z"/><path class="cls-2" d="M94.28,10.14C93.06,8.08,90.44,7.35,87.1,7.4l-.71,0-2.07.28A10.76,10.76,0,0,0,79.91,9.9c-2.13,1.71-2.55,4.68-3.33,7.8q-.75,3.51-1.51,7a8.41,8.41,0,0,0,0,4.56,5.06,5.06,0,0,0,3.06,2.77,13.84,13.84,0,0,0,2.92.59A11.7,11.7,0,0,0,85,32.43a9.14,9.14,0,0,0,7.61-6.93l.87-4.1.83-3.89C94.82,15.33,95.45,12.13,94.28,10.14Zm-6.17,4.63c-.58,2.71-1.17,5.42-1.75,8.14-.34,1.36-.4,3-1.11,4a2.49,2.49,0,0,1-2.56.87c-1.76-.42-.94-3-.59-4.44l1.48-6.82a8.92,8.92,0,0,1,1.14-3.39c.39-.49.88-.53,1.51-.8C87.8,12.28,88.45,13.14,88.11,14.77Z"/><path class="cls-3" d="M122.56,14.23h-3l-4.73,5.28-2.85-5.28-3.54-6.5a6.91,6.91,0,0,0-4.26,3.95l-.06,0h0c.24-1.22.49-2.43.74-3.64H98.5Q96,20,93.44,31.91h6.75q1.28-5.93,2.53-11.84c.41-1.66.45-3.86,1.67-4.72.52-.36,2.71-.45,4.89-.44l3.56,6.73-7,7.81h3l5.17-5.74,3.16,5.74h3.11l-4.23-7.92Z"/><path class="cls-3" d="M130.56,14.23H124.4l-2.69,15.22h2.61l.81-4.59h3.55c3.89,0,6.47-2,7.08-5.43S134.44,14.23,130.56,14.23Zm2.69,5.26c-.36,2.07-1.89,3.07-4.27,3.07h-3.45l1.07-6H130C132.43,16.53,133.6,17.49,133.25,19.49Z"/><path class="cls-3" d="M144.42,14.23h-6.27l-2.68,15.22h2.6l.81-4.59h3.67c.24,0,.49,0,.71,0l2,4.61h3l-2.57-5.09a6.09,6.09,0,0,0,4.07-4.93C150.32,16.12,148.38,14.23,144.42,14.23Zm2.83,5.26c-.36,2.07-1.91,3.07-4.29,3.07h-3.67l1.06-6H144C146.4,16.53,147.6,17.49,147.25,19.49Z"/><polygon class="cls-3" points="154.08 22.95 161.63 22.95 162.04 20.66 154.49 20.66 155.21 16.53 163.65 16.53 164.06 14.23 153.01 14.23 150.33 29.45 161.64 29.45 162.04 27.14 153.34 27.14 154.08 22.95"/><path class="cls-3" d="M168.07,18.12c.18-1,1.28-1.59,2.8-1.59A8.12,8.12,0,0,1,175.15,18l1.48-2.26a8.81,8.81,0,0,0-5.14-1.57c-3.35,0-5.91,1.63-6.37,4.24-1,5.41,7.72,3.52,7.12,6.91-.2,1.18-1.41,1.85-3.22,1.85a6.86,6.86,0,0,1-4.84-2.21l-1.52,2.21a8.06,8.06,0,0,0,5.89,2.42c3.4,0,6.13-1.68,6.61-4.4C176.15,19.66,167.49,21.45,168.07,18.12Z"/><path class="cls-3" d="M180.7,18.12c.18-1,1.28-1.59,2.8-1.59A8.09,8.09,0,0,1,187.78,18l1.48-2.26a8.81,8.81,0,0,0-5.14-1.57c-3.35,0-5.91,1.63-6.37,4.24-1,5.41,7.72,3.52,7.12,6.91-.2,1.18-1.4,1.85-3.22,1.85a6.86,6.86,0,0,1-4.84-2.21l-1.51,2.21a8,8,0,0,0,5.88,2.42c3.41,0,6.13-1.68,6.61-4.4C188.78,19.66,180.12,21.45,180.7,18.12Z"/><path class="cls-3" d="M13.3,3.2H11.66a1.38,1.38,0,0,1-1.38-1.38h0A1.37,1.37,0,0,1,11.66.45H13.3a1.37,1.37,0,0,1,1.37,1.37h0A1.37,1.37,0,0,1,13.3,3.2Z"/><path class="cls-3" d="M6.77,23H5.14a1.38,1.38,0,0,1-1.38-1.38h0A1.38,1.38,0,0,1,5.14,20.2H6.77a1.38,1.38,0,0,1,1.38,1.38h0A1.38,1.38,0,0,1,6.77,23Z"/><path class="cls-3" d="M6.77,9.79H5.14A1.38,1.38,0,0,1,3.76,8.41h0A1.38,1.38,0,0,1,5.14,7H6.77A1.38,1.38,0,0,1,8.15,8.41h0A1.38,1.38,0,0,1,6.77,9.79Z"/><rect class="cls-3" y="13.62" width="8.15" height="2.75" rx="1.22"/><path class="cls-3" d="M40.93.32,27.6.45H17.18a1.41,1.41,0,0,0-1.43,1.24A1.37,1.37,0,0,0,17.12,3.2h2a1.9,1.9,0,0,1,1.82,2.12,2,2,0,0,1-2,1.7H10.87A1.42,1.42,0,0,0,9.44,8.27a1.38,1.38,0,0,0,1.37,1.52H14a1.89,1.89,0,0,1,1.82,1.27A1.93,1.93,0,0,1,14,13.62H10.57A1.37,1.37,0,0,0,9.19,15h0a1.38,1.38,0,0,0,1.38,1.38H14a1.92,1.92,0,1,1,0,3.83H10.87a1.42,1.42,0,0,0-1.43,1.24A1.39,1.39,0,0,0,10.81,23h7.91a2,2,0,0,1,2,1.67,1.92,1.92,0,0,1-1.76,2.15H15.7A1.41,1.41,0,0,0,14.27,28a1.38,1.38,0,0,0,1.37,1.51h7.77a2.3,2.3,0,0,1,2.3,2.3v.69s.22.78,1.87,1.22a15,15,0,0,0,4.27.37c4.75-.38,8.83-2,10.8-6.77a52.36,52.36,0,0,0,1.74-6.26H38.73a2.21,2.21,0,0,0-2.15,1.69c-.07.32-.15.62-.25.93a16.15,16.15,0,0,1-1.15,3.07c-.87,1.54-1.49,1.85-3.26,1.77v0c-4.19-.08-8.56.4-9.45-2.9-.51-1.88.37-4.79,1.44-8.28a12,12,0,0,0,.36-4.7q.34.32.69.6a24.54,24.54,0,0,0-.19-4,12.35,12.35,0,0,0,1.06.9l.07-.34A23.84,23.84,0,0,0,25.69,6c.22.21.44.4.67.58a26,26,0,0,0,.05-3.95c3.55,4,8.06,2.75,11.19,3.08h0a3,3,0,0,1,1.69,3.15c0,.55-.13,1.09-.23,1.7a1.43,1.43,0,0,0,1.4,1.65H46c.3-1.22.6-2.26.8-3.32C47.68,4,45.85,1.23,40.93.32Z"/><path class="cls-3" d="M32.39,24.49l-.1,0a.45.45,0,0,1-.34-.53l3.7-16.45a.45.45,0,0,1,.54-.35.46.46,0,0,1,.34.54l-3.7,16.45A.46.46,0,0,1,32.39,24.49Z"/><circle class="cls-3" cx="31.94" cy="26.29" r="0.56"/><path class="cls-3" d="M64.92,10.33c-1.25-2.2-3.8-3-7.3-2.93l-1.08.06-1.82.28a10.45,10.45,0,0,0-4.13,2,6.8,6.8,0,0,0-1.9,2.54h8.06l0,0c1.37,0,2.19.61,1.92,2.16-.61,2.85-1.22,5.69-1.82,8.54-.34,1.35-.4,2.94-1.11,3.91a2.57,2.57,0,0,1-2.68.81c-1.61-.45-.76-3.16-.44-4.47.16-.72.31-1.43.47-2.15H46.39c-.25,1.19-.51,2.38-.77,3.56a8.39,8.39,0,0,0,0,4.66,5.18,5.18,0,0,0,3.21,2.8,8.84,8.84,0,0,0,3,.53c6,.07,9.27-1.89,10.95-6.17A44.18,44.18,0,0,0,64,21.18c.24-1.1.47-2.2.71-3.3C65.26,15.79,66.09,12.37,64.92,10.33Z"/><circle class="cls-3" cx="53.69" cy="16.9" r="1.47"/><path class="cls-1" d="M73.08,36.73h2l-2.21,9.64h-2Zm12.57,5.42-.94,4.22H82.92l.87-3.89c0-.19.06-.35.08-.46s0-.2,0-.29a1.17,1.17,0,0,0-.25-.79.89.89,0,0,0-.7-.3,1.42,1.42,0,0,0-1.16.57,5,5,0,0,0-.73,1.87l-.72,3.29H78.47l.85-3.86c0-.17.07-.33.09-.46a2.47,2.47,0,0,0,0-.35,1.13,1.13,0,0,0-.24-.77.86.86,0,0,0-.67-.29,1.47,1.47,0,0,0-1.15.54,3.56,3.56,0,0,0-.71,1.6l-.81,3.59H74l1.56-7.1h1.61l-.27,1.22a4,4,0,0,1,1.16-1,2.57,2.57,0,0,1,1.29-.32,1.76,1.76,0,0,1,1.82,1.44,3.76,3.76,0,0,1,1.14-1.09,2.63,2.63,0,0,1,1.36-.35,2.05,2.05,0,0,1,1.53.56,2.2,2.2,0,0,1,.54,1.58c0,.18,0,.33,0,.48a2,2,0,0,1-.06.38Zm2.17,3.5-1,4.56H84.9l1.53-7.16C86.88,41,88,39.23,90.9,39.17c2.7-.06,2.9,1.75,2.53,3.79s-1.82,3.51-3.33,3.65c-.72.07-1.88.11-2.28-1ZM91.32,41c-.63-.76-1.94-.06-2.39.53s-.89,2.4-.32,3.1,1.91.2,2.39-.48,1-2.26.32-3.15Zm9.43,2.25H95.54s0,.07,0,.11a.58.58,0,0,0,0,.15,1.55,1.55,0,0,0,.54,1.26,2.35,2.35,0,0,0,1.52.45,5.34,5.34,0,0,0,1.08-.11,4.73,4.73,0,0,0,1-.35l-.12,1.39a9,9,0,0,1-1.19.29,7,7,0,0,1-1.21.09,3.52,3.52,0,0,1-2.53-.87,3.09,3.09,0,0,1-.9-2.39,4.4,4.4,0,0,1,1.23-3,4,4,0,0,1,1.36-.93,4.62,4.62,0,0,1,1.7-.29,2.87,2.87,0,0,1,2.12.77,2.73,2.73,0,0,1,.77,2.08c0,.19,0,.4,0,.62s-.07.47-.12.73Zm-1.5-1.11a.43.43,0,0,0,0,0,2.51,2.51,0,0,0,0-.35,1.46,1.46,0,0,0-.36-1.09,1.37,1.37,0,0,0-1-.4,1.94,1.94,0,0,0-1.32.51,2.71,2.71,0,0,0-.8,1.38Zm7.64-3-.44,1.6a2.78,2.78,0,0,0-.46-.11,3.4,3.4,0,0,0-.45,0,1.82,1.82,0,0,0-1.4.53,4,4,0,0,0-.82,1.82l-.76,3.28h-2l1.57-7.05h1.76l-.28,1.2a4.32,4.32,0,0,1,1.13-1,2.4,2.4,0,0,1,1.23-.32l.4,0,.47.1Zm13,0-.08,1.62-.31-.07-.34,0a1.74,1.74,0,0,0-1.43.6,2.65,2.65,0,0,0-.5,1.72l0,3.29h-1.88l.06-7h1.69v1.4a2.94,2.94,0,0,1,.9-1.18,2.13,2.13,0,0,1,1.28-.39,1.37,1.37,0,0,1,.28,0l.37,0Zm-9.72-.58-1.5,4,2.93,0Zm-1.5-.94a1.62,1.62,0,0,1,3.06,0l3.41,8.66H113l-.78-2.23H108l-.86,2.23h-2Z"/><g class="cls-4"><path class="cls-5" d="M71.36,41.25c16.61,3.68,33.4,3.31,50.31.17l.23-6.78-52.9.5Z"/><path class="cls-5" d="M71.36,41c16.61,3.68,33.4,3.31,50.31.17.08-2.26.15-4.52.23-6.77L69,34.93c.79,2,1.57,4.08,2.36,6.11Z"/><path class="cls-5" d="M71.36,40.83c16.62,3.68,33.41,3.31,50.31.16.08-2.25.15-4.51.23-6.76L69,34.72q1.17,3.06,2.35,6.11Z"/><path class="cls-5" d="M71.36,40.62c16.62,3.68,33.41,3.31,50.31.16q.12-3.37.23-6.77L69,34.51c.78,2,1.57,4.07,2.35,6.11Z"/><path class="cls-5" d="M71.36,40.41c16.62,3.68,33.41,3.31,50.31.17.08-2.26.16-4.51.23-6.78L69,34.3c.78,2,1.57,4.07,2.35,6.11Z"/><path class="cls-5" d="M71.36,40.2c16.62,3.68,33.41,3.31,50.32.17q.1-3.39.23-6.77L69,34.09q1.18,3.06,2.35,6.11Z"/><path class="cls-5" d="M71.37,40c16.61,3.68,33.4,3.31,50.31.16q.1-3.37.23-6.77l-52.9.5L71.37,40Z"/><path class="cls-5" d="M71.37,39.78c16.61,3.68,33.4,3.31,50.31.17.08-2.27.15-4.52.23-6.78L69,33.67q1.17,3,2.35,6.11Z"/><path class="cls-5" d="M71.37,39.57c16.62,3.68,33.41,3.31,50.31.17.08-2.26.15-4.52.23-6.77L69,33.46c.78,2,1.57,4.08,2.35,6.11Z"/><path class="cls-5" d="M71.38,39.36c16.61,3.68,33.4,3.31,50.3.16.08-2.25.16-4.51.23-6.76L69,33.25c.78,2,1.57,4.07,2.36,6.11Z"/><path class="cls-5" d="M71.38,39.15c16.61,3.68,33.4,3.31,50.31.16.07-2.25.15-4.51.22-6.77L69,33c.78,2,1.57,4.07,2.36,6.11Z"/><path class="cls-5" d="M71.38,38.94c16.62,3.68,33.4,3.31,50.31.17l.23-6.78-52.9.5Z"/></g><path class="cls-1" d="M66.9,43.23h-46a.6.6,0,0,1-.6-.6.6.6,0,0,1,.6-.6h46a.6.6,0,0,1,.6.6A.6.6,0,0,1,66.9,43.23Z"/><path class="cls-1" d="M168.34,43.23h-46a.6.6,0,0,1-.61-.6.6.6,0,0,1,.61-.6h46a.6.6,0,0,1,.6.6A.6.6,0,0,1,168.34,43.23Z"/></g></g></svg>