<svg width="23" height="22" viewBox="0 0 23 22" fill="none" xmlns="http://www.w3.org/2000/svg">
<g clip-path="url(#clip0_201_2)">
<path d="M22.0805 8.00001C22.0112 7.78203 21.8796 7.58913 21.7018 7.44517C21.5241 7.30121 21.3081 7.2125 21.0805 7.19001L14.6905 6.61001L12.1505 0.710006C12.0569 0.503312 11.9057 0.327972 11.7151 0.204991C11.5244 0.0820098 11.3024 0.0166016 11.0755 0.0166016C10.8486 0.0166016 10.6265 0.0820098 10.4359 0.204991C10.2452 0.327972 10.094 0.503312 10.0005 0.710006L7.46047 6.63001L1.07047 7.21001C0.843102 7.22782 0.62603 7.31226 0.446391 7.45277C0.266752 7.59328 0.132518 7.78362 0.0604696 8.00001C-0.0152368 8.22154 -0.0233328 8.46059 0.0372116 8.68674C0.0977561 8.9129 0.224204 9.11593 0.40047 9.27001L5.23047 13.5L3.81047 19.78C3.75501 20.005 3.76824 20.2415 3.84845 20.459C3.92866 20.6764 4.07217 20.8649 4.26047 21C4.46172 21.1439 4.70309 21.2208 4.95047 21.22C5.16437 21.2215 5.37485 21.1663 5.56047 21.06L11.0705 17.76L16.5805 21.06C16.7777 21.1777 17.0051 21.2348 17.2345 21.2241C17.4639 21.2134 17.6851 21.1355 17.8705 21C18.0557 20.8642 18.1978 20.6777 18.2794 20.463C18.361 20.2483 18.3788 20.0146 18.3305 19.79L16.9005 13.5L21.7305 9.27001C21.9085 9.11711 22.0368 8.91461 22.0992 8.68839C22.1615 8.46217 22.155 8.2225 22.0805 8.00001V8.00001Z" fill="#F26926"/>
</g>
<defs>
<clipPath id="clip0_201_2">
<rect width="22.14" height="21.21" fill="white"/>
</clipPath>
</defs>
</svg>
